<svg width="189.401" height="68.403" viewBox="0 0 189.401 68.403" xmlns="http://www.w3.org/2000/svg"><g id="svgGroup" stroke-linecap="round" fill-rule="evenodd" font-size="9pt" stroke="#ffffff" stroke-width="0.50mm" fill="#ffffff" style="stroke:#ffffff;stroke-width:0.50mm;fill:#ffffff"><path d="M 63.801 67.2 L 60.601 67.2 L 60.601 1.2 L 63.801 1.2 L 63.801 30.6 L 100.801 30.6 L 100.801 1.2 L 104.001 1.2 L 104.001 67.2 L 100.801 67.2 L 100.801 33.4 L 63.801 33.4 L 63.801 67.2 Z M 44.601 7.8 L 42.601 10 Q 39.901 6.8 36.151 4.9 Q 32.401 3 27.801 3 A 24.819 24.819 0 0 0 19.643 4.282 A 20.707 20.707 0 0 0 9.901 11.4 Q 4.188 18.783 3.496 30.646 A 57.626 57.626 0 0 0 3.401 34 A 50.842 50.842 0 0 0 4.225 43.436 Q 5.244 48.825 7.521 53.121 A 27.895 27.895 0 0 0 9.851 56.8 A 20.453 20.453 0 0 0 24.699 65.266 A 26.573 26.573 0 0 0 27.401 65.4 A 22.053 22.053 0 0 0 32.76 64.772 A 18.386 18.386 0 0 0 36.701 63.3 Q 40.801 61.2 44.601 57 L 46.601 59 A 32.052 32.052 0 0 1 41.539 63.758 A 27.567 27.567 0 0 1 38.201 65.9 A 20.015 20.015 0 0 1 32.281 67.955 A 27.628 27.628 0 0 1 27.201 68.4 Q 15.001 68.4 7.501 59 A 32.7 32.7 0 0 1 1.488 46.665 Q 0.001 40.947 0.001 34 Q 0.001 18.4 7.601 9.2 A 24.508 24.508 0 0 1 25.483 0.081 A 32.69 32.69 0 0 1 27.801 0 Q 33.501 0 37.751 2.4 A 30.388 30.388 0 0 1 41.373 4.782 A 22.148 22.148 0 0 1 44.601 7.8 Z M 187.401 7.8 L 185.401 10 Q 182.701 6.8 178.951 4.9 Q 175.201 3 170.601 3 A 24.819 24.819 0 0 0 162.443 4.282 A 20.707 20.707 0 0 0 152.701 11.4 Q 146.988 18.783 146.296 30.646 A 57.626 57.626 0 0 0 146.201 34 A 50.842 50.842 0 0 0 147.025 43.436 Q 148.044 48.825 150.321 53.121 A 27.895 27.895 0 0 0 152.651 56.8 A 20.453 20.453 0 0 0 167.499 65.266 A 26.573 26.573 0 0 0 170.201 65.4 A 22.053 22.053 0 0 0 175.56 64.772 A 18.386 18.386 0 0 0 179.501 63.3 Q 183.601 61.2 187.401 57 L 189.401 59 A 32.052 32.052 0 0 1 184.339 63.758 A 27.567 27.567 0 0 1 181.001 65.9 A 20.015 20.015 0 0 1 175.081 67.955 A 27.628 27.628 0 0 1 170.001 68.4 Q 157.801 68.4 150.301 59 A 32.7 32.7 0 0 1 144.288 46.665 Q 142.801 40.947 142.801 34 Q 142.801 18.4 150.401 9.2 A 24.508 24.508 0 0 1 168.283 0.081 A 32.69 32.69 0 0 1 170.601 0 Q 176.301 0 180.551 2.4 A 30.388 30.388 0 0 1 184.173 4.782 A 22.148 22.148 0 0 1 187.401 7.8 Z M 127.201 67.2 L 124.001 67.2 L 124.001 1.2 L 127.201 1.2 L 127.201 67.2 Z" vector-effect="non-scaling-stroke"/></g></svg>